<?xml version="1.0" encoding="utf-8"?>
<svg width="100%" height="100%" viewBox="0 0 24 24" version="1.1" xmlns:xlink="http://www.w3.org/1999/xlink"
	xmlns="http://www.w3.org/2000/svg">
	<g id="GifIcon" clip-path="url(#clip_1)">
		<g id="You-Up" transform="translate(4.569519 5.260725)">
			<path
				d="M2.20014 16.0728L2.20254 13.5627C2.20254 13.5627 -0.821459 14.3162 0.217187 10.3861C1.25583 6.4561 0.984511 7.43045 4.58495 5.22424C5.26224 4.70547 4.63567 3.397 4.58495 3.2389C4.3198 2.41237 4.49951 0.259679 6.17321 0.0623439C7.8469 -0.134991 9.8269 0.137849 8.95269 0.856489C8.0785 1.57513 8.7842 2.03682 8.55562 3.2389C8.32704 4.44098 8.07507 4.54844 7.76148 5.22424C7.4479 5.90005 10.4561 5.82364 10.541 9.19493C10.6259 12.5662 11.8187 12.5591 12.5263 12.7685C13.2339 12.978 14.7948 13.1807 15.3058 13.9598C15.8168 14.7388 14.7043 16.0434 12.9234 15.151C11.1425 14.2585 9.74683 13.9598 9.74683 13.9598L10.1415 16.0728L2.20014 16.0728Z"
				transform="translate(6.8979466E-07 0)" id="New-shape" fill="none" fill-rule="evenodd"
				stroke="currentColor" stroke-width="1.5" />
			<path d="M6.08071 0C4.21558 0.960571 4.14037 0.713002 2.50709 1.19121C0.873817 1.66942 0 2.1824 0 2.1824"
				transform="translate(2.2025247 11.380287)" id="New-shape-2" fill="none" fill-rule="evenodd"
				stroke="currentColor" stroke-width="1.5" stroke-linecap="round" />
		</g>
		<path d="M1 8.5L1 0" transform="translate(12 13.5)" id="Give" fill="none" fill-rule="evenodd"
			stroke="currentColor" stroke-width="1.5" stroke-linecap="round" />
		<path d="M1 0L1 2" transform="translate(12 12)" id="Gonna" fill="none" fill-rule="evenodd" stroke="currentColor"
			stroke-width="2" stroke-linecap="round" />
		<path
			d="M1.999 0L18.001 0Q18.0992 0 18.1969 0.00962573Q18.2947 0.0192515 18.391 0.0384102Q18.4873 0.057569 18.5813 0.0860763Q18.6753 0.114584 18.766 0.152165Q18.8567 0.189746 18.9433 0.236039Q19.0299 0.282333 19.1116 0.336892Q19.1932 0.391452 19.2692 0.453752Q19.3451 0.516052 19.4145 0.585494Q19.4839 0.654935 19.5462 0.730848Q19.6085 0.806761 19.6631 0.888415Q19.7177 0.970069 19.764 1.05668Q19.8103 1.14329 19.8478 1.23402Q19.8854 1.32474 19.9139 1.41872Q19.9424 1.5127 19.9616 1.60901Q19.9807 1.70533 19.9904 1.80306Q20 1.9008 20 1.999L20 18.001Q20 18.0992 19.9904 18.1969Q19.9807 18.2947 19.9616 18.391Q19.9424 18.4873 19.9139 18.5813Q19.8854 18.6753 19.8478 18.766Q19.8103 18.8567 19.764 18.9433Q19.7177 19.0299 19.6631 19.1116Q19.6085 19.1932 19.5462 19.2692Q19.4839 19.3451 19.4145 19.4145Q19.3451 19.4839 19.2692 19.5462Q19.1932 19.6085 19.1116 19.6631Q19.0299 19.7177 18.9433 19.764Q18.8567 19.8103 18.766 19.8478Q18.6753 19.8854 18.5813 19.9139Q18.4873 19.9424 18.391 19.9616Q18.2947 19.9807 18.1969 19.9904Q18.0992 20 18.001 20L1.999 20Q1.9008 20 1.80306 19.9904Q1.70533 19.9807 1.60901 19.9616Q1.5127 19.9424 1.41872 19.9139Q1.32474 19.8854 1.23402 19.8478Q1.14329 19.8103 1.05668 19.764Q0.970069 19.7177 0.888415 19.6631Q0.806761 19.6085 0.730848 19.5462Q0.654935 19.4839 0.585494 19.4145Q0.516052 19.3451 0.453752 19.2692Q0.391452 19.1932 0.336892 19.1116Q0.282333 19.0299 0.236039 18.9433Q0.189746 18.8567 0.152165 18.766Q0.114584 18.6753 0.0860763 18.5813Q0.057569 18.4873 0.0384102 18.391Q0.0192515 18.2947 0.00962573 18.1969Q0 18.0992 0 18.001L0 1.999Q0 1.9008 0.00962573 1.80306Q0.0192515 1.70533 0.0384102 1.60901Q0.057569 1.5127 0.0860763 1.41872Q0.114584 1.32474 0.152165 1.23402Q0.189746 1.14329 0.236039 1.05668Q0.282333 0.970069 0.336892 0.888415Q0.391452 0.806761 0.453752 0.730848Q0.516052 0.654935 0.585494 0.585494Q0.654935 0.516052 0.730848 0.453752Q0.806761 0.391452 0.888415 0.336892Q0.970069 0.282333 1.05668 0.236039Q1.14329 0.189746 1.23402 0.152165Q1.32474 0.114584 1.41872 0.0860763Q1.5127 0.057569 1.60901 0.0384102Q1.70533 0.0192515 1.80306 0.00962573Q1.9008 0 1.999 0L1.999 0Z"
			transform="translate(2 2)" id="Never" fill="none" fill-rule="evenodd" stroke="currentColor"
			stroke-width="1.5" />
	</g>
</svg>